<svg width="240" height="76" viewBox="0 0 240 76" fill="none" xmlns="http://www.w3.org/2000/svg">
<path d="M220.338 0.000245761H19.0753C18.3417 0.000245761 17.6169 0.000245761 16.8852 0.0040267C16.2727 0.00780765 15.6651 0.0187913 15.0467 0.0280357C13.7033 0.0429738 12.3631 0.154652 11.0376 0.362101C9.71408 0.574066 8.43198 0.973679 7.2347 1.54743C6.03889 2.12603 4.94624 2.87786 3.99639 3.77565C3.04156 4.67091 2.24563 5.70572 1.63921 6.84027C1.03112 7.97257 0.609472 9.18593 0.388822 10.4384C0.166074 11.6894 0.0462112 12.9547 0.0303095 14.2232C0.0117437 14.8028 0.00978306 15.3843 0 15.964V59.6609C0.00978306 60.2479 0.0117437 60.8165 0.0303095 61.4037C0.0462161 62.6721 0.166079 63.9374 0.388822 65.1882C0.608862 66.4415 1.03054 67.6555 1.63921 68.7883C2.24535 69.9191 3.04139 70.9498 3.99639 71.8401C4.94263 72.7418 6.03599 73.4942 7.2347 74.0683C8.43197 74.6436 9.71394 75.0456 11.0376 75.2609C12.3633 75.4666 13.7034 75.5784 15.0467 75.5951C15.6651 75.608 16.2727 75.6153 16.8852 75.6153C17.6168 75.6191 18.3417 75.6191 19.0753 75.6191H220.338C221.057 75.6191 221.788 75.6191 222.507 75.6153C223.117 75.6153 223.742 75.608 224.351 75.5951C225.692 75.5793 227.03 75.4675 228.353 75.2609C229.681 75.0441 230.967 74.6422 232.17 74.0683C233.368 73.4938 234.46 72.7415 235.406 71.8401C236.358 70.9463 237.156 69.9164 237.77 68.7883C238.374 67.6547 238.791 66.4408 239.008 65.1882C239.231 63.9372 239.355 62.6722 239.38 61.4037C239.387 60.8165 239.387 60.2479 239.387 59.6609C239.403 58.9741 239.403 58.291 239.403 57.5931V18.028C239.403 17.3357 239.403 16.6489 239.387 15.964C239.387 15.3843 239.387 14.8028 239.38 14.2231C239.355 12.9546 239.231 11.6895 239.008 10.4384C238.791 9.18658 238.373 7.97332 237.77 6.8402C236.535 4.5661 234.576 2.71501 232.17 1.54726C230.967 0.974911 229.681 0.575404 228.353 0.361931C227.03 0.153568 225.692 0.0418508 224.351 0.027771C223.742 0.0185455 223.117 0.00746736 222.507 0.00378094C221.788 0 221.057 0.000245761 220.338 0.000245761Z" fill="#A6A6A6"/>
<path d="M16.895 73.9648C16.2854 73.9648 15.6906 73.9575 15.0858 73.9446C13.833 73.9292 12.5831 73.8261 11.3464 73.6363C10.1932 73.4486 9.07606 73.0995 8.03185 72.6005C6.99721 72.1056 6.05353 71.4567 5.23697 70.6786C4.4086 69.9097 3.71893 69.0179 3.19531 68.0386C2.66593 67.0529 2.29956 65.9963 2.10898 64.9057C1.90316 63.7338 1.7918 62.5489 1.77587 61.3611C1.76319 60.9624 1.74658 59.6349 1.74658 59.6349V15.9639C1.74658 15.9639 1.76427 14.6568 1.77597 14.2728C1.79123 13.0869 1.90194 11.9038 2.10713 10.7337C2.29807 9.64012 2.66472 8.58051 3.19439 7.59157C3.71609 6.6129 4.40192 5.72044 5.22531 4.94878C6.04777 4.1698 6.99447 3.51755 8.03087 3.01583C9.07268 2.51842 10.1877 2.17178 11.3385 1.98753C12.5793 1.79577 13.8336 1.6921 15.0907 1.67738L16.8959 1.6543H222.497L224.324 1.67831C225.57 1.69229 226.813 1.79504 228.042 1.98568C229.205 2.17224 230.331 2.5213 231.385 3.02137C233.461 4.03248 235.151 5.63216 236.216 7.59618C236.738 8.5783 237.099 9.62926 237.287 10.7134C237.495 11.8931 237.611 13.0855 237.635 14.2811C237.641 14.8165 237.641 15.3916 237.641 15.9639C237.656 16.6728 237.656 17.3476 237.656 18.0279V57.593C237.656 58.2798 237.656 58.95 237.641 59.6256C237.641 60.2404 237.641 60.8036 237.633 61.3832C237.609 62.5575 237.495 63.7286 237.291 64.8872C237.104 65.9856 236.74 67.0505 236.211 68.0443C235.683 69.013 234.998 69.897 234.179 70.6639C233.361 71.4461 232.416 72.0988 231.379 72.5969C230.328 73.0997 229.203 73.4501 228.042 73.6363C226.805 73.8271 225.555 73.9302 224.302 73.9446C223.716 73.9575 223.103 73.9648 222.507 73.9648L220.338 73.9686L16.895 73.9648Z" fill="black"/>
<path d="M49.5532 38.3778C49.5747 36.7999 50.0183 35.2528 50.8426 33.8804C51.6669 32.508 52.8452 31.3549 54.2678 30.5285C53.3641 29.3088 52.1718 28.3051 50.7857 27.597C49.3996 26.8889 47.8579 26.496 46.283 26.4494C42.9235 26.1162 39.6666 28.349 37.9546 28.349C36.2095 28.349 33.5737 26.4825 30.7353 26.5377C28.8994 26.5937 27.1102 27.0982 25.5419 28.002C23.9737 28.9057 22.6799 30.1779 21.7867 31.6947C17.9175 38.0247 20.8036 47.3279 24.51 52.4446C26.3643 54.9502 28.5316 57.7489 31.3674 57.6497C34.1423 57.5409 35.1787 55.9776 38.5284 55.9776C41.847 55.9776 42.8193 57.6497 45.7126 57.5866C48.6903 57.5409 50.5664 55.0699 52.3557 52.5406C53.6881 50.7553 54.7134 48.7822 55.3935 46.6943C53.6636 46.0029 52.1873 44.8456 51.1487 43.3667C50.1101 41.8878 49.5552 40.1527 49.5532 38.3778Z" fill="white"/>
<path d="M44.0883 23.0843C45.7118 21.2426 46.5117 18.8753 46.318 16.4854C43.8376 16.7315 41.5463 17.8517 39.9009 19.6228C39.0963 20.488 38.4801 21.4946 38.0875 22.5849C37.6949 23.6753 37.5336 24.8281 37.6127 25.9774C38.8534 25.9895 40.0808 25.7354 41.2025 25.2342C42.3241 24.7331 43.3108 23.998 44.0883 23.0843Z" fill="white"/>
<path d="M84.6309 51.3069H75.1611L72.887 57.6521H68.876L77.8456 34.1763H82.0129L90.9825 57.6521H86.9031L84.6309 51.3069ZM76.1419 48.3789H83.6483L79.9479 38.0809H79.8443L76.1419 48.3789Z" fill="white"/>
<path d="M110.354 49.0951C110.354 54.4139 107.341 57.8311 102.795 57.8311C101.643 57.888 100.498 57.6373 99.4899 57.1078C98.482 56.5782 97.6522 55.7911 97.0957 54.8366H97.0097V63.3142H93.2917V40.5362H96.8906V43.383H96.959C97.5411 42.4331 98.3848 41.6501 99.4004 41.1173C100.416 40.5845 101.565 40.3218 102.726 40.3572C107.323 40.3572 110.354 43.791 110.354 49.0951ZM106.532 49.0951C106.532 45.6298 104.637 43.3516 101.746 43.3516C98.9049 43.3516 96.9941 45.6778 96.9941 49.0951C96.9941 52.5437 98.9049 54.8533 101.746 54.8533C104.637 54.8533 106.532 52.5917 106.532 49.0951Z" fill="white"/>
<path d="M130.29 49.0951C130.29 54.4139 127.277 57.8311 122.731 57.8311C121.579 57.888 120.434 57.6373 119.426 57.1077C118.418 56.5781 117.588 55.7911 117.032 54.8366H116.946V63.3142H113.228V40.5362H116.826V43.383H116.895C117.477 42.4331 118.321 41.6501 119.336 41.1173C120.352 40.5845 121.501 40.3218 122.662 40.3572C127.259 40.3572 130.29 43.791 130.29 49.0951ZM126.468 49.0951C126.468 45.6298 124.573 43.3516 121.682 43.3516C118.841 43.3516 116.93 45.6778 116.93 49.0951C116.93 52.5437 118.841 54.8532 121.682 54.8532C124.573 54.8532 126.468 52.5917 126.468 49.0951Z" fill="white"/>
<path d="M143.466 51.111C143.741 53.439 146.135 54.9676 149.405 54.9676C152.539 54.9676 154.793 53.439 154.793 51.3399C154.793 49.5177 153.434 48.4266 150.214 47.6789L146.994 46.946C142.432 45.9047 140.314 43.8887 140.314 40.6173C140.314 36.5668 144.05 33.7847 149.354 33.7847C154.604 33.7847 158.203 36.5668 158.324 40.6173H154.571C154.346 38.2745 152.297 36.8604 149.301 36.8604C146.306 36.8604 144.257 38.2912 144.257 40.3736C144.257 42.0333 145.566 43.01 148.768 43.7576L151.505 44.3927C156.603 45.5318 158.72 47.4666 158.72 50.9004C158.72 55.2924 155.018 58.0432 149.13 58.0432C143.62 58.0432 139.9 55.357 139.66 51.1108L143.466 51.111Z" fill="white"/>
<path d="M166.744 36.4858V40.5363H170.189V43.3185H166.744V52.7542C166.744 54.2201 167.434 54.9032 168.948 54.9032C169.357 54.8964 169.765 54.8693 170.171 54.8219V57.5874C169.491 57.7076 168.799 57.7621 168.106 57.7499C164.439 57.7499 163.009 56.4483 163.009 53.1289V43.3185H160.375V40.5363H163.009V36.4858H166.744Z" fill="white"/>
<path d="M172.184 49.095C172.184 43.7097 175.54 40.3257 180.774 40.3257C186.026 40.3257 189.367 43.7096 189.367 49.095C189.367 54.495 186.044 57.8642 180.774 57.8642C175.507 57.8642 172.184 54.495 172.184 49.095ZM185.579 49.095C185.579 45.4008 183.787 43.2205 180.774 43.2205C177.762 43.2205 175.972 45.4174 175.972 49.095C175.972 52.8039 177.762 54.9676 180.774 54.9676C183.787 54.9676 185.579 52.8039 185.579 49.095Z" fill="white"/>
<path d="M192.432 40.5361H195.978V43.4493H196.064C196.304 42.5394 196.868 41.7354 197.662 41.1722C198.455 40.6091 199.429 40.3212 200.421 40.357C200.849 40.3556 201.277 40.3995 201.695 40.4881V43.7742C201.154 43.618 200.59 43.5463 200.024 43.5619C199.484 43.5412 198.946 43.6312 198.446 43.8257C197.946 44.0202 197.497 44.3146 197.129 44.6887C196.761 45.0628 196.483 45.5078 196.314 45.993C196.145 46.4782 196.089 46.9923 196.15 47.4998V57.6518H192.432L192.432 40.5361Z" fill="white"/>
<path d="M218.837 52.6248C218.337 55.7319 215.135 57.8642 211.038 57.8642C205.768 57.8642 202.498 54.5282 202.498 49.1762C202.498 43.8076 205.786 40.3257 210.881 40.3257C215.893 40.3257 219.044 43.5786 219.044 48.7682V49.9719H206.251V50.1842C206.192 50.8141 206.275 51.4487 206.496 52.0457C206.716 52.6428 207.069 53.1888 207.529 53.6473C207.99 54.1058 208.549 54.4665 209.169 54.7052C209.788 54.944 210.455 55.0555 211.124 55.0322C212.002 55.11 212.884 54.9177 213.638 54.484C214.391 54.0502 214.977 53.3982 215.307 52.6248L218.837 52.6248ZM206.269 47.5165H215.324C215.357 46.9501 215.267 46.3833 215.057 45.8517C214.848 45.3201 214.524 44.8351 214.107 44.4272C213.69 44.0193 213.188 43.6973 212.633 43.4814C212.078 43.2655 211.481 43.1603 210.881 43.1725C210.276 43.1691 209.676 43.279 209.115 43.4959C208.555 43.7128 208.046 44.0324 207.617 44.4363C207.188 44.8402 206.848 45.3203 206.617 45.849C206.385 46.3776 206.267 46.9444 206.269 47.5165Z" fill="white"/>
<path d="M75.676 16.5055C76.4555 16.4526 77.2377 16.5639 77.9661 16.8313C78.6946 17.0986 79.3511 17.5155 79.8885 18.0516C80.4258 18.5878 80.8305 19.23 81.0734 19.9319C81.3163 20.6338 81.3913 21.3778 81.293 22.1104C81.293 25.7141 79.2318 27.7856 75.676 27.7856H71.3641V16.5055H75.676ZM73.2182 26.1904H75.4689C76.0259 26.2218 76.5833 26.1355 77.1005 25.9378C77.6178 25.74 78.0818 25.4357 78.459 25.0471C78.8361 24.6585 79.1167 24.1953 79.2805 23.6913C79.4443 23.1872 79.487 22.655 79.4057 22.1334C79.4811 21.6138 79.434 21.0849 79.2677 20.5846C79.1014 20.0843 78.8201 19.6249 78.4438 19.2394C78.0676 18.8538 77.6058 18.5517 77.0915 18.3547C76.5771 18.1576 76.0231 18.0705 75.4689 18.0995H73.2182V26.1904Z" fill="white"/>
<path d="M83.3874 23.5253C83.3308 22.9658 83.3985 22.4014 83.5862 21.8682C83.774 21.3349 84.0776 20.8446 84.4776 20.4288C84.8776 20.0129 85.3652 19.6806 85.9091 19.4532C86.4529 19.2259 87.0411 19.1084 87.6358 19.1084C88.2305 19.1084 88.8187 19.2259 89.3626 19.4532C89.9064 19.6806 90.394 20.0129 90.794 20.4288C91.194 20.8446 91.4976 21.3349 91.6854 21.8682C91.8731 22.4014 91.9408 22.9658 91.8842 23.5253C91.9419 24.0853 91.875 24.6505 91.6878 25.1846C91.5005 25.7187 91.1971 26.2099 90.797 26.6265C90.3969 27.0432 89.9089 27.3762 89.3645 27.6041C88.8201 27.8319 88.2312 27.9497 87.6358 27.9497C87.0404 27.9497 86.4515 27.8319 85.9071 27.6041C85.3627 27.3762 84.8747 27.0432 84.4746 26.6265C84.0745 26.2099 83.7711 25.7187 83.5839 25.1846C83.3966 24.6505 83.3297 24.0853 83.3874 23.5253ZM90.0555 23.5253C90.0555 21.68 89.1783 20.6009 87.6387 20.6009C86.0933 20.6009 85.224 21.68 85.224 23.5253C85.224 25.3853 86.0934 26.4561 87.6387 26.4561C89.1783 26.456 90.0555 25.3779 90.0555 23.5253Z" fill="white"/>
<path d="M103.179 27.7856H101.334L99.4726 21.516H99.3319L97.4778 27.7856H95.651L93.1678 19.2729H94.9712L96.5849 25.7686H96.7178L98.5699 19.2729H100.276L102.128 25.7686H102.268L103.874 19.2729H105.652L103.179 27.7856Z" fill="white"/>
<path d="M107.741 19.2728H109.452V20.6251H109.585C109.81 20.1394 110.191 19.7323 110.672 19.4604C111.154 19.1885 111.714 19.0655 112.273 19.1085C112.712 19.0773 113.152 19.1398 113.561 19.2912C113.971 19.4426 114.339 19.6791 114.638 19.9832C114.937 20.2873 115.161 20.6511 115.291 21.0478C115.422 21.4444 115.456 21.8637 115.392 22.2746V27.7854H113.614V22.6965C113.614 21.3285 112.985 20.6482 111.67 20.6482C111.372 20.6351 111.075 20.683 110.799 20.7885C110.523 20.894 110.274 21.0548 110.069 21.2597C109.865 21.4646 109.71 21.7088 109.615 21.9756C109.52 22.2424 109.487 22.5255 109.519 22.8054V27.7855H107.741L107.741 19.2728Z" fill="white"/>
<path d="M118.224 15.9497H120.002V27.7855H118.224V15.9497Z" fill="white"/>
<path d="M122.474 23.5254C122.417 22.966 122.485 22.4015 122.673 21.8682C122.861 21.335 123.164 20.8447 123.564 20.4288C123.964 20.0129 124.452 19.6806 124.996 19.4532C125.54 19.2259 126.128 19.1084 126.723 19.1084C127.317 19.1084 127.906 19.2259 128.45 19.4532C128.993 19.6806 129.481 20.0129 129.881 20.4288C130.281 20.8447 130.585 21.335 130.773 21.8682C130.96 22.4015 131.028 22.966 130.972 23.5254C131.029 24.0854 130.962 24.6507 130.775 25.1848C130.588 25.7189 130.284 26.21 129.884 26.6267C129.484 27.0434 128.996 27.3763 128.451 27.6042C127.907 27.8321 127.318 27.9498 126.723 27.9498C126.127 27.9498 125.538 27.8321 124.994 27.6042C124.449 27.3763 123.962 27.0434 123.561 26.6267C123.161 26.21 122.858 25.7189 122.67 25.1848C122.483 24.6507 122.416 24.0854 122.474 23.5254ZM129.142 23.5254C129.142 21.6802 128.265 20.6011 126.725 20.6011C125.18 20.6011 124.31 21.6802 124.31 23.5254C124.31 25.3854 125.18 26.4562 126.725 26.4562C128.265 26.4562 129.142 25.378 129.142 23.5254Z" fill="white"/>
<path d="M132.843 25.378C132.843 23.8456 134.051 22.9623 136.194 22.8367L138.634 22.7038V21.969C138.634 21.0699 138.005 20.5622 136.79 20.5622C135.797 20.5622 135.11 20.9066 134.912 21.5084H133.191C133.373 20.0462 134.828 19.1084 136.872 19.1084C139.13 19.1084 140.404 20.1708 140.404 21.969V27.7854H138.693V26.5891H138.552C138.267 27.0182 137.866 27.368 137.39 27.6028C136.915 27.8376 136.382 27.949 135.846 27.9256C135.468 27.9628 135.086 27.9247 134.724 27.8137C134.362 27.7027 134.029 27.5214 133.747 27.2813C133.464 27.0413 133.237 26.7479 133.081 26.4201C132.926 26.0923 132.845 25.7372 132.843 25.378ZM138.634 24.6506V23.9389L136.434 24.0718C135.194 24.1502 134.631 24.549 134.631 25.2995C134.631 26.0656 135.334 26.5115 136.301 26.5115C136.585 26.5386 136.871 26.5116 137.143 26.432C137.415 26.3524 137.668 26.2219 137.885 26.0483C138.103 25.8747 138.281 25.6615 138.41 25.4213C138.539 25.1812 138.615 24.9191 138.634 24.6506Z" fill="white"/>
<path d="M142.741 23.5255C142.741 20.8356 144.204 19.1316 146.48 19.1316C147.043 19.1071 147.602 19.2345 148.091 19.499C148.581 19.7634 148.98 20.154 149.243 20.6251H149.376V15.9497H151.154V27.7855H149.45V26.4405H149.309C149.026 26.9084 148.613 27.2941 148.114 27.5559C147.615 27.8177 147.051 27.9456 146.48 27.9257C144.189 27.9258 142.741 26.2218 142.741 23.5255ZM144.578 23.5255C144.578 25.331 145.478 26.4175 146.985 26.4175C148.483 26.4175 149.409 25.3153 149.409 23.5329C149.409 21.7587 148.473 20.6408 146.985 20.6408C145.488 20.6408 144.578 21.7347 144.578 23.5255Z" fill="white"/>
<path d="M158.51 23.5253C158.453 22.9658 158.521 22.4014 158.708 21.8682C158.896 21.3349 159.2 20.8446 159.6 20.4288C160 20.0129 160.487 19.6806 161.031 19.4532C161.575 19.2259 162.163 19.1084 162.758 19.1084C163.353 19.1084 163.941 19.2259 164.485 19.4532C165.029 19.6806 165.516 20.0129 165.916 20.4288C166.316 20.8446 166.62 21.3349 166.808 21.8682C166.995 22.4014 167.063 22.9658 167.006 23.5253C167.064 24.0853 166.997 24.6505 166.81 25.1846C166.623 25.7187 166.319 26.2099 165.919 26.6265C165.519 27.0432 165.031 27.3762 164.487 27.6041C163.942 27.8319 163.353 27.9497 162.758 27.9497C162.163 27.9497 161.574 27.8319 161.029 27.6041C160.485 27.3762 159.997 27.0432 159.597 26.6265C159.197 26.2099 158.893 25.7187 158.706 25.1846C158.519 24.6505 158.452 24.0853 158.51 23.5253ZM165.178 23.5253C165.178 21.68 164.3 20.6009 162.761 20.6009C161.216 20.6009 160.346 21.68 160.346 23.5253C160.346 25.3853 161.216 26.4561 162.761 26.4561C164.3 26.456 165.178 25.3779 165.178 23.5253Z" fill="white"/>
<path d="M169.392 19.2728H171.103V20.6251H171.236C171.462 20.1394 171.842 19.7323 172.324 19.4604C172.805 19.1885 173.365 19.0655 173.925 19.1085C174.363 19.0773 174.803 19.1398 175.212 19.2912C175.622 19.4426 175.99 19.6791 176.289 19.9832C176.589 20.2873 176.812 20.6511 176.942 21.0478C177.073 21.4444 177.107 21.8637 177.043 22.2746V27.7854H175.265V22.6965C175.265 21.3285 174.636 20.6482 173.321 20.6482C173.023 20.6351 172.726 20.683 172.45 20.7885C172.174 20.894 171.925 21.0548 171.721 21.2597C171.516 21.4646 171.361 21.7088 171.266 21.9756C171.171 22.2424 171.138 22.5255 171.17 22.8054V27.7855H169.392V19.2728Z" fill="white"/>
<path d="M187.089 17.1533V19.3115H189.041V20.7266H187.089V25.1038C187.089 25.9955 187.478 26.386 188.363 26.386C188.589 26.3853 188.816 26.3724 189.041 26.3472V27.7466C188.721 27.8006 188.398 27.8293 188.073 27.8324C186.096 27.8324 185.309 27.1752 185.309 25.534V20.7265H183.879V19.3114H185.309V17.1533H187.089Z" fill="white"/>
<path d="M191.469 15.9497H193.231V20.6408H193.372C193.608 20.1506 193.999 19.7411 194.49 19.4682C194.982 19.1954 195.551 19.0723 196.119 19.1159C196.555 19.0935 196.991 19.1623 197.395 19.3174C197.8 19.4725 198.164 19.71 198.46 20.0131C198.756 20.3163 198.978 20.6774 199.11 21.0709C199.241 21.4644 199.279 21.8805 199.221 22.2894V27.7855H197.442V22.7039C197.442 21.3442 196.771 20.6556 195.515 20.6556C195.21 20.6319 194.902 20.6716 194.615 20.7719C194.327 20.8722 194.066 21.0306 193.85 21.2362C193.634 21.4418 193.468 21.6895 193.364 21.962C193.26 22.2344 193.22 22.5251 193.247 22.8137V27.7854H191.469L191.469 15.9497Z" fill="white"/>
<path d="M209.588 25.487C209.346 26.265 208.823 26.938 208.109 27.3882C207.396 27.8384 206.537 28.0372 205.684 27.9498C205.091 27.9646 204.501 27.8572 203.956 27.635C203.411 27.4128 202.923 27.0812 202.527 26.6631C202.131 26.2451 201.836 25.7506 201.663 25.2141C201.49 24.6775 201.442 24.1117 201.523 23.556C201.444 22.9985 201.493 22.4315 201.666 21.8933C201.839 21.3551 202.132 20.8584 202.526 20.4367C202.92 20.015 203.405 19.6781 203.948 19.449C204.492 19.2198 205.081 19.1037 205.677 19.1085C208.183 19.1085 209.695 20.7268 209.695 23.3999V23.9861H203.334V24.0803C203.306 24.3927 203.348 24.7071 203.456 25.0034C203.564 25.2998 203.737 25.5714 203.963 25.8011C204.189 26.0307 204.463 26.2131 204.768 26.3368C205.073 26.4604 205.401 26.5225 205.733 26.519C206.158 26.5672 206.589 26.4949 206.971 26.3111C207.353 26.1273 207.668 25.8405 207.876 25.487L209.588 25.487ZM203.334 22.7436H207.884C207.907 22.4579 207.866 22.171 207.764 21.9012C207.662 21.6313 207.501 21.3847 207.292 21.177C207.083 20.9693 206.831 20.8052 206.551 20.6952C206.271 20.5853 205.97 20.5318 205.667 20.5384C205.359 20.5347 205.054 20.5893 204.769 20.6988C204.484 20.8084 204.226 20.9707 204.008 21.1762C203.791 21.3817 203.619 21.6263 203.503 21.8955C203.388 22.1647 203.33 22.4531 203.334 22.7436Z" fill="white"/>
</svg>
