<svg width="247" height="120" viewBox="0 0 247 120" fill="none" xmlns="http://www.w3.org/2000/svg">
<path d="M30.85 119.62C13.84 119.62 0 105.78 0 88.77V63.21C0 46.2 13.83 32.36 30.84 32.36C32.22 32.36 33.34 33.48 33.34 34.86C33.34 36.24 32.22 37.36 30.84 37.36C16.68 37.36 5.14 48.81 4.99 62.93V63.21V88.75C4.99 103.01 16.58 114.61 30.84 114.61C32.22 114.61 33.34 115.73 33.34 117.11C33.34 118.49 32.22 119.61 30.84 119.61L30.85 119.62Z" fill="#F7EBC4"/>
<path d="M49.3199 119.62C40.1299 119.62 32.6499 112.14 32.6499 102.95C32.6499 93.76 40.1299 86.28 49.3199 86.28C58.5099 86.28 65.9899 93.76 65.9899 102.95C65.9899 112.14 58.5099 119.62 49.3199 119.62ZM49.3199 91.27C42.8799 91.27 37.6499 96.51 37.6499 102.94C37.6499 109.37 42.8899 114.61 49.3199 114.61C55.7499 114.61 60.9899 109.37 60.9899 102.94C60.9899 96.51 55.7499 91.27 49.3199 91.27Z" fill="#F7EBC4"/>
<path d="M199.43 119.62C194.98 119.62 190.79 117.89 187.64 114.74C184.49 111.59 182.76 107.4 182.76 102.95C182.76 98.5 184.49 94.31 187.64 91.16C190.79 88.01 194.97 86.28 199.43 86.28C203.89 86.28 208.07 88.01 211.22 91.16C212.2 92.14 212.2 93.72 211.22 94.7C210.24 95.68 208.66 95.68 207.68 94.7C205.47 92.49 202.54 91.28 199.43 91.28C196.32 91.28 193.38 92.49 191.18 94.7C188.97 96.91 187.76 99.84 187.76 102.95C187.76 106.06 188.97 109 191.18 111.2C193.39 113.41 196.32 114.62 199.43 114.62C202.54 114.62 205.48 113.41 207.68 111.2C208.66 110.22 210.24 110.22 211.22 111.2C212.2 112.18 212.2 113.76 211.22 114.74C208.07 117.89 203.88 119.62 199.43 119.62Z" fill="#F7EBC4"/>
<path d="M176.26 105.5H150.72C149.34 105.5 148.22 104.38 148.22 103C148.22 101.62 149.34 100.5 150.72 100.5H176.26C177.64 100.5 178.76 101.62 178.76 103C178.76 104.38 177.64 105.5 176.26 105.5Z" fill="#F7EBC4"/>
<path d="M162.18 119.62C152.99 119.62 145.51 112.14 145.51 102.95C145.51 93.76 152.99 86.28 162.18 86.28C171.37 86.28 178.85 93.76 178.85 102.95C178.85 104.33 177.73 105.45 176.35 105.45C174.97 105.45 173.85 104.33 173.85 102.95C173.85 96.51 168.61 91.28 162.18 91.28C155.75 91.28 150.51 96.52 150.51 102.95C150.51 109.38 155.75 114.62 162.18 114.62C163.56 114.62 164.68 115.74 164.68 117.12C164.68 118.5 163.56 119.62 162.18 119.62Z" fill="#F7EBC4"/>
<path d="M100.65 119.62C99.2699 119.62 98.1499 118.5 98.1499 117.12V102.3C98.1499 100.92 99.2699 99.8 100.65 99.8C102.03 99.8 103.15 100.92 103.15 102.3V117.12C103.15 118.5 102.03 119.62 100.65 119.62Z" fill="#F7EBC4"/>
<path d="M100.65 105.43C99.2701 105.43 98.1501 104.31 98.1501 102.93C98.1501 96.49 92.9101 91.26 86.4801 91.26C80.0501 91.26 74.8101 96.5 74.8101 102.93C74.8101 104.31 73.6901 105.43 72.3101 105.43C70.9301 105.43 69.8101 104.31 69.8101 102.93C69.8101 93.74 77.2901 86.26 86.4801 86.26C95.6701 86.26 103.15 93.74 103.15 102.93C103.15 104.31 102.03 105.43 100.65 105.43Z" fill="#F7EBC4"/>
<path d="M72.27 119.62C70.89 119.62 69.77 118.5 69.77 117.12V88.77C69.77 87.39 70.89 86.27 72.27 86.27C73.65 86.27 74.77 87.39 74.77 88.77V117.12C74.77 118.5 73.65 119.62 72.27 119.62Z" fill="#F7EBC4"/>
<path d="M138.63 119.62C137.25 119.62 136.13 118.5 136.13 117.12V102.3C136.13 100.92 137.25 99.8 138.63 99.8C140.01 99.8 141.13 100.92 141.13 102.3V117.12C141.13 118.5 140.01 119.62 138.63 119.62Z" fill="#F7EBC4"/>
<path d="M138.63 105.43C137.25 105.43 136.13 104.31 136.13 102.93C136.13 96.49 130.89 91.26 124.46 91.26C118.03 91.26 112.79 96.5 112.79 102.93C112.79 104.31 111.67 105.43 110.29 105.43C108.91 105.43 107.79 104.31 107.79 102.93C107.79 93.74 115.27 86.26 124.46 86.26C133.65 86.26 141.13 93.74 141.13 102.93C141.13 104.31 140.01 105.43 138.63 105.43Z" fill="#F7EBC4"/>
<path d="M110.25 119.62C108.87 119.62 107.75 118.5 107.75 117.12V88.77C107.75 87.39 108.87 86.27 110.25 86.27C111.63 86.27 112.75 87.39 112.75 88.77V117.12C112.75 118.5 111.63 119.62 110.25 119.62Z" fill="#F7EBC4"/>
<path d="M243.77 82.48H218.23C216.85 82.48 215.73 81.36 215.73 79.98C215.73 78.6 216.85 77.48 218.23 77.48H243.77C245.15 77.48 246.27 78.6 246.27 79.98C246.27 81.36 245.15 82.48 243.77 82.48Z" fill="#F7EBC4"/>
<path d="M230.81 119.62C229.43 119.62 228.31 118.5 228.31 117.12V66.62C228.31 65.24 229.43 64.12 230.81 64.12C232.19 64.12 233.31 65.24 233.31 66.62V117.12C233.31 118.5 232.19 119.62 230.81 119.62Z" fill="#F7EBC4"/>
<path d="M59.23 84.68H54.23L54.25 30.85C54.25 30.83 54.25 30.8 54.25 30.78C54.29 13.81 68.11 0.00999451 85.1 0.00999451C86.48 0.00999451 87.6 1.12999 87.6 2.50999C87.6 3.88999 86.48 5.00999 85.1 5.00999C70.85 5.00999 59.25 16.6 59.25 30.86L59.23 84.69V84.68Z" fill="#F7EBC4"/>
<path d="M82.52 37.21H56.98C55.6 37.21 54.48 36.09 54.48 34.71C54.48 33.33 55.6 32.21 56.98 32.21H82.52C83.9 32.21 85.02 33.33 85.02 34.71C85.02 36.09 83.9 37.21 82.52 37.21Z" fill="#F7EBC4"/>
<path d="M102.48 87.09C93.2901 87.09 85.8101 79.61 85.8101 70.42C85.8101 61.23 93.2901 53.75 102.48 53.75C111.67 53.75 119.15 61.23 119.15 70.42C119.15 79.61 111.67 87.09 102.48 87.09ZM102.48 58.74C96.0401 58.74 90.8101 63.98 90.8101 70.41C90.8101 76.84 96.0501 82.08 102.48 82.08C108.91 82.08 114.15 76.84 114.15 70.41C114.15 63.98 108.91 58.74 102.48 58.74Z" fill="#F7EBC4"/>
<path d="M116.71 87.09C115.33 87.09 114.21 85.97 114.21 84.59V56.24C114.21 54.86 115.33 53.74 116.71 53.74C118.09 53.74 119.21 54.86 119.21 56.24V84.59C119.21 85.97 118.09 87.09 116.71 87.09Z" fill="#F7EBC4"/>
<path d="M205.01 87C203.99 87 203.03 86.37 202.66 85.35L192.37 57.06C191.9 55.76 192.57 54.33 193.87 53.86C195.17 53.39 196.6 54.06 197.07 55.36L207.36 83.65C207.83 84.95 207.16 86.38 205.86 86.85C205.58 86.95 205.29 87 205.01 87Z" fill="#F7EBC4"/>
<path d="M197.5 113.09C197.26 113.09 197.02 113.06 196.78 112.98C195.46 112.58 194.71 111.19 195.1 109.87L211.36 55.5C211.76 54.18 213.15 53.42 214.47 53.82C215.79 54.22 216.54 55.61 216.15 56.93L199.89 111.3C199.57 112.38 198.57 113.08 197.5 113.08V113.09Z" fill="#F7EBC4"/>
<path d="M128.29 75.11C126.91 75.11 125.79 73.99 125.79 72.61C125.79 63.42 133.27 55.94 142.46 55.94C143.84 55.94 144.96 57.06 144.96 58.44C144.96 59.82 143.84 60.94 142.46 60.94C136.02 60.94 130.79 66.18 130.79 72.61C130.79 73.99 129.67 75.11 128.29 75.11Z" fill="#F7EBC4"/>
<path d="M128.32 87.09C126.94 87.09 125.82 85.97 125.82 84.59V56.24C125.82 54.86 126.94 53.74 128.32 53.74C129.7 53.74 130.82 54.86 130.82 56.24V84.59C130.82 85.97 129.7 87.09 128.32 87.09Z" fill="#F7EBC4"/>
<path d="M142.49 87.09C141.11 87.09 139.99 85.97 139.99 84.59V58.44C139.99 57.06 141.11 55.94 142.49 55.94C143.87 55.94 144.99 57.06 144.99 58.44V84.59C144.99 85.97 143.87 87.09 142.49 87.09Z" fill="#F7EBC4"/>
<path d="M142.52 75.06C141.14 75.06 140.02 73.94 140.02 72.56C140.02 63.37 147.5 55.89 156.69 55.89C158.07 55.89 159.19 57.01 159.19 58.39C159.19 59.77 158.07 60.89 156.69 60.89C150.25 60.89 145.02 66.13 145.02 72.56C145.02 73.94 143.9 75.06 142.52 75.06Z" fill="#F7EBC4"/>
<path d="M156.71 87.04C155.33 87.04 154.21 85.92 154.21 84.54V58.39C154.21 57.01 155.33 55.89 156.71 55.89C158.09 55.89 159.21 57.01 159.21 58.39V84.54C159.21 85.92 158.09 87.04 156.71 87.04Z" fill="#F7EBC4"/>
<path d="M168.58 87.47C167.2 87.47 166.08 86.35 166.08 84.97V56.62C166.08 55.24 167.2 54.12 168.58 54.12C169.96 54.12 171.08 55.24 171.08 56.62V84.97C171.08 86.35 169.96 87.47 168.58 87.47Z" fill="#F7EBC4"/>
<path d="M168.58 47.91C166.42 47.91 164.66 46.15 164.66 43.99C164.66 41.83 166.42 40.07 168.58 40.07C170.74 40.07 172.5 41.83 172.5 43.99C172.5 46.15 170.74 47.91 168.58 47.91ZM168.58 42.91C167.98 42.91 167.5 43.4 167.5 43.99C167.5 44.58 167.99 45.07 168.58 45.07C169.17 45.07 169.66 44.58 169.66 43.99C169.66 43.4 169.17 42.91 168.58 42.91Z" fill="#F7EBC4"/>
<path d="M181.25 87.09C179.87 87.09 178.75 85.97 178.75 84.59V34.09C178.75 32.71 179.87 31.59 181.25 31.59C182.63 31.59 183.75 32.71 183.75 34.09V84.59C183.75 85.97 182.63 87.09 181.25 87.09Z" fill="#F7EBC4"/>
</svg>
