<svg width="209" height="125" viewBox="0 0 209 125" fill="none" xmlns="http://www.w3.org/2000/svg">
<g clip-path="url(#clip0_825_1517)">
<path d="M68.6201 38.21H43.0801C41.4201 38.21 40.0801 36.87 40.0801 35.21C40.0801 33.55 41.4201 32.21 43.0801 32.21H68.6201C70.2801 32.21 71.6201 33.55 71.6201 35.21C71.6201 36.87 70.2801 38.21 68.6201 38.21Z" fill="#F7EBC4"/>
<path d="M42.8301 88.18C41.1701 88.18 39.8301 86.84 39.8301 85.18L39.8501 31.35C39.8501 31.35 39.8501 31.28 39.8501 31.25C39.9101 14.01 53.9501 0 71.2001 0C72.8601 0 74.2001 1.34 74.2001 3C74.2001 4.66 72.8601 6 71.2001 6C57.2201 6 45.8501 17.37 45.8501 31.35L45.8301 85.18C45.8301 86.84 44.4901 88.18 42.8301 88.18Z" fill="#F7EBC4"/>
<path d="M80.0802 88.09C70.6102 88.09 62.9102 80.39 62.9102 70.92C62.9102 61.45 70.6102 53.75 80.0802 53.75C89.5502 53.75 97.2502 61.45 97.2502 70.92C97.2502 80.39 89.5502 88.09 80.0802 88.09ZM80.0802 59.74C73.9202 59.74 68.9102 64.75 68.9102 70.91C68.9102 77.07 73.9202 82.08 80.0802 82.08C86.2402 82.08 91.2502 77.07 91.2502 70.91C91.2502 64.75 86.2402 59.74 80.0802 59.74Z" fill="#F7EBC4"/>
<path d="M94.3101 88.09C92.6501 88.09 91.3101 86.75 91.3101 85.09V56.74C91.3101 55.08 92.6501 53.74 94.3101 53.74C95.9701 53.74 97.3101 55.08 97.3101 56.74V85.09C97.3101 86.75 95.9701 88.09 94.3101 88.09Z" fill="#F7EBC4"/>
<path d="M168.1 87.9999C166.87 87.9999 165.72 87.2399 165.28 86.0199L154.99 57.7299C154.42 56.1699 155.23 54.4499 156.78 53.8899C158.34 53.3199 160.06 54.1299 160.62 55.6799L170.91 83.9699C171.48 85.5299 170.67 87.2499 169.12 87.8099C168.78 87.9299 168.44 87.9899 168.09 87.9899L168.1 87.9999Z" fill="#F7EBC4"/>
<path d="M160.58 114.09C160.3 114.09 160.01 114.05 159.72 113.96C158.13 113.49 157.23 111.81 157.71 110.23L173.97 55.8599C174.44 54.2699 176.11 53.3699 177.7 53.8499C179.29 54.3199 180.19 55.9999 179.71 57.5799L163.45 111.95C163.06 113.25 161.87 114.09 160.58 114.09Z" fill="#F7EBC4"/>
<path d="M105.89 76.1099C104.23 76.1099 102.89 74.7699 102.89 73.1099C102.89 63.6399 110.59 55.9399 120.06 55.9399C121.72 55.9399 123.06 57.2799 123.06 58.9399C123.06 60.5999 121.72 61.9399 120.06 61.9399C113.9 61.9399 108.89 66.9499 108.89 73.1099C108.89 74.7699 107.55 76.1099 105.89 76.1099Z" fill="#F7EBC4"/>
<path d="M105.92 88.09C104.26 88.09 102.92 86.75 102.92 85.09V56.74C102.92 55.08 104.26 53.74 105.92 53.74C107.58 53.74 108.92 55.08 108.92 56.74V85.09C108.92 86.75 107.58 88.09 105.92 88.09Z" fill="#F7EBC4"/>
<path d="M120.09 88.0899C118.43 88.0899 117.09 86.7499 117.09 85.0899V58.9399C117.09 57.2799 118.43 55.9399 120.09 55.9399C121.75 55.9399 123.09 57.2799 123.09 58.9399V85.0899C123.09 86.7499 121.75 88.0899 120.09 88.0899Z" fill="#F7EBC4"/>
<path d="M120.12 76.06C118.46 76.06 117.12 74.72 117.12 73.06C117.12 63.59 124.82 55.89 134.29 55.89C135.95 55.89 137.29 57.23 137.29 58.89C137.29 60.55 135.95 61.89 134.29 61.89C128.13 61.89 123.12 66.9 123.12 73.06C123.12 74.72 121.78 76.06 120.12 76.06Z" fill="#F7EBC4"/>
<path d="M134.31 88.04C132.65 88.04 131.31 86.7 131.31 85.04V58.89C131.31 57.23 132.65 55.89 134.31 55.89C135.97 55.89 137.31 57.23 137.31 58.89V85.04C137.31 86.7 135.97 88.04 134.31 88.04Z" fill="#F7EBC4"/>
<path d="M146.17 88.47C144.51 88.47 143.17 87.13 143.17 85.47V57.12C143.17 55.46 144.51 54.12 146.17 54.12C147.83 54.12 149.17 55.46 149.17 57.12V85.47C149.17 87.13 147.83 88.47 146.17 88.47Z" fill="#F7EBC4"/>
<path d="M146.17 48.9099C143.73 48.9099 141.75 46.9299 141.75 44.4899C141.75 42.0499 143.73 40.0699 146.17 40.0699C148.61 40.0699 150.59 42.0499 150.59 44.4899C150.59 46.9299 148.61 48.9099 146.17 48.9099ZM146.17 42.9099C145.3 42.9099 144.59 43.6199 144.59 44.4899C144.59 45.3599 145.3 46.0699 146.17 46.0699C147.04 46.0699 147.75 45.3599 147.75 44.4899C147.75 43.6199 147.04 42.9099 146.17 42.9099Z" fill="#F7EBC4"/>
<path d="M31.35 124.89C14.06 124.89 0 110.83 0 93.54C0 93.51 0 93.49 0 93.46V68.12C0 68.12 0 68.03 0 67.98C0 50.7 14.06 36.63 31.35 36.63C33.01 36.63 34.35 37.97 34.35 39.63C34.35 41.29 33.01 42.63 31.35 42.63C17.42 42.63 6.07 53.93 6 67.85C6 67.89 6 67.94 6 67.98V93.52C6 93.52 6 93.57 6 93.59C6.03 107.54 17.39 118.87 31.35 118.87C33.01 118.87 34.35 120.21 34.35 121.87C34.35 123.53 33.01 124.87 31.35 124.87V124.89Z" fill="#F7EBC4"/>
<path d="M49.8199 124.89C40.3499 124.89 32.6499 117.19 32.6499 107.72C32.6499 98.25 40.3499 90.55 49.8199 90.55C59.2899 90.55 66.9899 98.25 66.9899 107.72C66.9899 117.19 59.2899 124.89 49.8199 124.89ZM49.8199 96.54C43.6599 96.54 38.6499 101.55 38.6499 107.71C38.6499 113.87 43.6599 118.88 49.8199 118.88C55.9799 118.88 60.9899 113.87 60.9899 107.71C60.9899 101.55 55.9799 96.54 49.8199 96.54Z" fill="#F7EBC4"/>
<path d="M161.34 124.88C156.94 124.88 152.54 123.21 149.2 119.86C142.5 113.16 142.5 102.27 149.2 95.5701C155.89 88.8801 166.79 88.8701 173.49 95.5701C174.66 96.7401 174.66 98.6401 173.49 99.8101C172.32 100.98 170.42 100.98 169.25 99.8101C164.89 95.4501 157.81 95.4501 153.45 99.8101C149.09 104.17 149.09 111.25 153.45 115.61C157.81 119.97 164.9 119.97 169.25 115.61C170.42 114.44 172.32 114.44 173.49 115.61C174.66 116.78 174.66 118.68 173.49 119.85C170.14 123.2 165.74 124.87 161.35 124.87L161.34 124.88Z" fill="#F7EBC4"/>
<path d="M138.17 110.77H112.63C110.97 110.77 109.63 109.43 109.63 107.77C109.63 106.11 110.97 104.77 112.63 104.77H138.17C139.83 104.77 141.17 106.11 141.17 107.77C141.17 109.43 139.83 110.77 138.17 110.77Z" fill="#F7EBC4"/>
<path d="M124.09 124.89C114.62 124.89 106.92 117.19 106.92 107.72C106.92 98.25 114.62 90.55 124.09 90.55C133.56 90.55 141.26 98.25 141.26 107.72C141.26 109.38 139.92 110.72 138.26 110.72C136.6 110.72 135.26 109.38 135.26 107.72C135.26 101.56 130.25 96.55 124.09 96.55C117.93 96.55 112.92 101.56 112.92 107.72C112.92 113.88 117.93 118.89 124.09 118.89C125.75 118.89 127.09 120.23 127.09 121.89C127.09 123.55 125.75 124.89 124.09 124.89Z" fill="#F7EBC4"/>
<path d="M101.15 124.89C99.4899 124.89 98.1499 123.55 98.1499 121.89V107.07C98.1499 105.41 99.4899 104.07 101.15 104.07C102.81 104.07 104.15 105.41 104.15 107.07V121.89C104.15 123.55 102.81 124.89 101.15 124.89Z" fill="#F7EBC4"/>
<path d="M101.15 110.7C99.4901 110.7 98.1501 109.36 98.1501 107.7C98.1501 101.54 93.1401 96.53 86.9801 96.53C80.8201 96.53 75.8101 101.54 75.8101 107.7C75.8101 109.36 74.4701 110.7 72.8101 110.7C71.1501 110.7 69.8101 109.36 69.8101 107.7C69.8101 98.23 77.5101 90.53 86.9801 90.53C96.4501 90.53 104.15 98.23 104.15 107.7C104.15 109.36 102.81 110.7 101.15 110.7Z" fill="#F7EBC4"/>
<path d="M72.77 124.89C71.11 124.89 69.77 123.55 69.77 121.89V93.54C69.77 91.88 71.11 90.54 72.77 90.54C74.43 90.54 75.77 91.88 75.77 93.54V121.89C75.77 123.55 74.43 124.89 72.77 124.89Z" fill="#F7EBC4"/>
<path d="M205.68 87.75H180.14C178.48 87.75 177.14 86.41 177.14 84.75C177.14 83.09 178.48 81.75 180.14 81.75H205.68C207.34 81.75 208.68 83.09 208.68 84.75C208.68 86.41 207.34 87.75 205.68 87.75Z" fill="#F7EBC4"/>
<path d="M192.72 124.89C191.06 124.89 189.72 123.55 189.72 121.89V71.39C189.72 69.73 191.06 68.39 192.72 68.39C194.38 68.39 195.72 69.73 195.72 71.39V121.89C195.72 123.55 194.38 124.89 192.72 124.89Z" fill="#F7EBC4"/>
</g>
<defs>
<clipPath id="clip0_825_1517">
<rect width="208.68" height="124.89" fill="white"/>
</clipPath>
</defs>
</svg>
